<?xml version="1.0" standalone="no"?>
<!DOCTYPE svg PUBLIC "-//W3C//DTD SVG 20010904//EN"
 "http://www.w3.org/TR/2001/REC-SVG-20010904/DTD/svg10.dtd">
<svg version="1.0" xmlns="http://www.w3.org/2000/svg"
 width="482.000000pt" height="482.000000pt" viewBox="0 0 482.000000 482.000000"
 preserveAspectRatio="xMidYMid meet">
<metadata>
Created by potrace 1.11, written by Peter Selinger 2001-2013
</metadata>
<g transform="translate(0.000000,482.000000) scale(0.100000,-0.100000)"
fill="#000000" stroke="none">
<path d="M3326 4440 c-21 -91 -51 -237 -66 -325 -15 -88 -30 -153 -33 -145 -3
8 -23 66 -43 127 -21 62 -39 111 -41 110 -1 -2 2 -30 8 -63 15 -88 24 -380 12
-387 -15 -9 -66 179 -65 238 1 42 -1 47 -10 30 -11 -18 -12 -17 -25 15 l-13
35 6 -51 c4 -35 0 -63 -12 -93 -9 -23 -18 -40 -20 -38 -12 12 -64 396 -64 475
0 51 -15 48 -23 -5 -40 -266 -57 -366 -63 -372 -3 -3 -3 19 0 49 4 30 9 75 12
100 l4 45 -16 -42 c-16 -43 -34 -57 -34 -28 0 23 -81 268 -86 262 -3 -2 0 -33
6 -68 18 -113 24 -398 10 -472 -13 -73 -24 -90 -34 -54 -49 174 -126 524 -126
570 0 12 -4 17 -8 12 -11 -13 -32 -267 -33 -405 -1 -92 -3 -99 -11 -60 -27
130 -53 246 -78 345 l-28 110 -1 -71 c-1 -39 -4 -113 -8 -165 l-6 -94 -29 85
c-22 65 -28 104 -29 170 l0 85 -18 -40 c-12 -27 -20 -35 -24 -25 -3 8 -3 2 -1
-15 5 -24 -40 -252 -50 -263 -2 -1 -18 40 -36 93 -18 52 -35 93 -37 91 -3 -2
0 -45 6 -95 8 -77 7 -98 -7 -138 l-16 -48 -8 49 c-13 89 -28 295 -29 394 0 53
-4 117 -7 142 -7 43 -9 36 -45 -120 -22 -91 -43 -178 -47 -195 -5 -16 -14 -69
-21 -118 -7 -48 -14 -85 -16 -83 -8 7 -26 172 -32 291 -6 113 -7 118 -18 80
-22 -73 -61 -239 -83 -350 -12 -60 -23 -111 -25 -113 -2 -2 -11 30 -20 70 -14
59 -15 85 -7 138 5 36 9 66 7 68 -2 2 -9 -16 -17 -39 l-14 -42 -57 159 c-32
87 -55 143 -52 124 15 -91 35 -335 34 -425 l-1 -100 -24 75 c-13 41 -32 117
-41 168 -9 50 -20 92 -25 92 -4 0 -8 -24 -9 -52 -1 -29 -4 -78 -8 -108 l-7
-55 -18 40 c-86 195 -109 245 -113 242 -2 -3 5 -47 16 -98 11 -52 25 -133 32
-181 10 -81 9 -93 -11 -155 -13 -38 -25 -72 -28 -77 -7 -12 -42 118 -49 181
-3 29 -9 51 -12 48 -4 -2 -18 28 -32 68 l-24 72 -6 -110 c-4 -60 -7 -129 -8
-153 -1 -47 -21 -50 -21 -4 0 15 -14 95 -31 177 -21 100 -34 195 -38 285 -6
134 -6 135 -20 90 -13 -42 -15 -43 -22 -20 -5 18 -7 9 -8 -34 -1 -32 -17 -131
-35 -220 -19 -89 -41 -201 -48 -249 -16 -113 -25 -87 -26 77 -1 71 -3 131 -6
133 -4 5 -41 -137 -76 -297 -25 -115 -28 -123 -39 -97 -6 16 -11 42 -11 58 0
16 -4 29 -8 29 -4 0 -18 32 -31 71 -12 39 -25 69 -27 66 -2 -2 1 -57 8 -123 8
-81 8 -132 2 -159 l-10 -40 -18 80 c-29 133 -123 442 -131 433 -2 -2 1 -25 5
-53 10 -59 11 -367 1 -410 -6 -26 -8 -22 -15 30 -4 33 -21 131 -37 217 -34
184 -49 340 -49 527 0 74 -2 132 -5 130 -10 -11 -85 -349 -106 -478 -12 -75
-25 -139 -28 -143 -4 -4 -24 44 -45 108 -21 63 -39 114 -41 112 -2 -2 0 -33 5
-68 19 -140 21 -243 6 -290 -8 -27 -16 -39 -19 -30 -56 166 -62 209 -42 307 5
24 3 23 -15 -10 -12 -22 -25 -35 -32 -31 -7 5 -8 3 -3 -5 8 -14 -22 -101 -35
-101 -7 0 -33 176 -49 343 -5 48 -11 90 -13 92 -3 3 -17 -75 -32 -172 -43
-277 -37 -265 -70 -143 -35 135 -99 311 -91 255 25 -190 29 -572 6 -613 -4 -8
-20 31 -38 95 l-31 108 -1 -1358 -1 -1358 33 5 c17 3 62 8 100 11 66 6 67 6
67 -17 0 -13 9 -52 21 -86 51 -152 220 -251 429 -252 181 0 318 60 371 162 43
84 33 172 -28 239 -59 65 -102 82 -433 169 -117 31 -224 65 -267 87 -89 43
-162 113 -199 190 -25 51 -28 70 -29 153 0 91 2 100 38 172 84 171 257 258
511 258 140 0 230 -19 332 -70 135 -66 218 -175 245 -323 7 -37 11 -69 8 -71
-2 -2 -48 -6 -101 -10 l-96 -7 -12 55 c-34 165 -190 258 -409 243 -149 -10
-229 -45 -284 -124 -38 -53 -46 -117 -22 -178 31 -82 102 -117 377 -185 224
-56 336 -95 405 -139 183 -118 239 -324 144 -528 -43 -90 -117 -161 -222 -211
-114 -55 -178 -67 -339 -65 -153 1 -251 22 -360 75 -127 62 -234 200 -265 342
-12 53 -14 -9 -14 -501 l-1 -563 2411 0 2411 0 -3 1625 c-3 1389 -5 1625 -17
1620 -11 -4 -12 -1 -6 12 5 10 10 186 12 391 l3 373 -33 102 -32 102 -8 -125
c-5 -69 -12 -145 -17 -170 -7 -40 -9 -31 -16 73 -4 65 -9 116 -12 114 -2 -3
-19 -80 -38 -173 -34 -168 -60 -272 -68 -281 -3 -2 -8 13 -12 34 -3 21 -18 78
-32 128 -22 77 -25 101 -19 174 3 46 8 96 11 110 3 14 -5 -2 -17 -36 -12 -35
-25 -63 -28 -63 -3 0 -11 12 -18 28 -10 23 -10 18 -6 -34 4 -48 0 -84 -22
-163 -15 -56 -28 -100 -30 -98 -2 2 -12 62 -23 133 -41 271 -45 292 -52 259
-4 -16 -7 -55 -8 -84 -1 -62 -9 -59 -36 14 -22 62 -107 246 -111 242 -2 -1 5
-41 16 -89 27 -124 40 -224 50 -388 10 -165 3 -333 -13 -304 -12 21 -14 167
-4 239 l7 50 -18 -44 -19 -44 -31 124 c-17 68 -44 162 -60 209 -35 100 -38 95
-47 -85 -3 -66 -9 -136 -13 -155 -8 -35 -8 -35 -16 20 -4 30 -18 109 -32 175
-18 88 -26 167 -31 300 -4 105 -9 170 -14 155 -41 -138 -90 -361 -119 -540
-10 -63 -19 -101 -20 -85 -1 17 -5 91 -9 165 l-6 134 -33 -134 c-18 -74 -41
-171 -51 -215 l-18 -80 -26 85 c-15 47 -36 108 -47 135 l-21 50 6 -45 c12
-102 23 -306 18 -334 -5 -24 -13 0 -34 104 -27 135 -84 334 -113 400 -16 34
-16 34 -9 -40 9 -82 9 -104 5 -330 -2 -91 -7 -147 -11 -135 -16 39 -70 381
-82 510 -6 72 -14 211 -17 310 l-7 180 -39 -165z m-1771 -868 c-4 -27 -10 -40
-17 -36 -13 8 -5 276 9 309 10 25 17 -211 8 -273z m-1176 166 c-1 -112 -1
-113 -14 -63 -12 46 -11 92 1 153 10 48 14 17 13 -90z m2699 -33 l0 -50 -13
43 c-9 28 -12 61 -7 95 l6 52 7 -45 c4 -25 7 -67 7 -95z m-2583 -330 c15 -82
29 -161 32 -175 4 -19 14 0 42 85 40 120 54 154 46 115 -3 -14 -10 -87 -17
-164 l-11 -138 -116 7 c-64 4 -117 8 -118 9 -1 0 5 51 12 111 11 91 32 410 36
537 1 46 62 -203 94 -387z m1181 155 c14 -63 37 -177 50 -254 13 -76 25 -140
27 -142 6 -6 27 290 28 391 l1 90 25 -95 c14 -52 40 -165 58 -250 l32 -155 17
60 c10 33 28 98 42 145 30 105 106 316 99 275 -14 -82 -25 -226 -30 -370 l-5
-160 46 135 c25 74 48 137 51 140 3 3 2 -20 -2 -50 -12 -89 -21 -220 -14 -212
3 4 18 43 34 87 29 83 126 308 131 303 1 -2 -4 -32 -11 -68 -14 -63 -55 -347
-55 -378 0 -13 -25 -14 -207 -9 -187 6 -346 18 -412 33 -22 5 -23 8 -17 52 24
168 37 312 43 487 l7 200 18 -70 c9 -38 29 -122 44 -185z m1509 -190 c43 -241
37 -229 68 -129 15 47 34 101 42 120 l15 34 -6 -35 c-3 -19 -8 -75 -12 -125
l-7 -89 -95 -18 c-150 -27 -144 -29 -136 40 14 118 36 430 37 522 l1 95 33
-135 c19 -74 45 -200 60 -280z m1165 219 c22 -90 52 -236 67 -324 26 -151 28
-157 35 -110 4 28 10 140 14 250 l8 200 23 -90 c22 -87 83 -368 83 -384 0 -13
-133 -41 -229 -48 -106 -7 -98 -22 -76 137 8 58 18 203 22 323 3 119 8 216 9
214 2 -2 22 -77 44 -168z m-1822 -39 c38 -151 78 -355 87 -437 l7 -60 -83 -6
c-45 -4 -84 -5 -86 -3 -2 2 3 66 11 142 8 77 18 219 22 317 4 97 8 176 9 175
1 -2 16 -59 33 -128z m-1690 -20 c12 -69 26 -163 33 -209 7 -48 15 -78 19 -70
4 8 19 59 34 114 25 97 92 287 81 234 -8 -43 -25 -297 -25 -381 l0 -78 -115 0
c-130 0 -123 -6 -105 87 11 60 36 257 45 361 4 40 8 72 10 70 1 -2 12 -59 23
-128z m348 -210 l7 -185 -66 3 c-37 2 -67 5 -67 7 0 1 15 67 34 146 19 79 43
187 53 239 l17 95 7 -60 c4 -33 11 -143 15 -245z m2370 -3 c9 -70 20 -124 24
-120 4 4 19 54 33 110 32 120 89 276 82 223 -13 -104 -16 -149 -16 -258 l0
-121 -112 6 c-62 3 -113 7 -115 8 -1 1 5 46 13 101 8 54 20 158 27 229 l12
130 17 -90 c10 -49 25 -148 35 -218z m-2132 230 c4 4 5 -3 2 -17 -3 -14 7 -79
23 -145 32 -135 26 -135 77 5 21 58 24 61 20 25 -3 -22 -10 -105 -17 -185 -7
-80 -13 -146 -14 -147 -1 -3 -161 23 -203 33 -29 6 -28 13 34 205 35 108 44
152 45 210 0 70 1 72 13 41 6 -18 15 -30 20 -25z m3317 -28 c-6 -35 -13 -109
-16 -164 -10 -161 -9 -158 -64 -189 -27 -14 -51 -26 -54 -26 -3 0 3 33 14 73
27 99 121 378 126 373 2 -2 -1 -32 -6 -67z m-872 -81 c6 -79 12 -182 14 -230
l3 -87 -25 4 c-14 2 -42 7 -62 10 l-36 5 34 142 c18 78 38 177 45 220 6 43 12
78 13 78 2 0 7 -64 14 -142z m242 -9 c-6 -35 -13 -104 -16 -154 -10 -161 -13
-175 -38 -175 -48 0 -68 11 -62 34 20 70 119 366 122 362 2 -2 -1 -32 -6 -67z
m114 -180 c-8 -74 -15 -141 -15 -149 0 -12 -8 -15 -35 -12 -19 2 -35 9 -35 15
0 14 94 287 97 283 2 -1 -4 -63 -12 -137z m-3944 27 c-6 -52 -11 -100 -11
-106 0 -5 -11 -10 -25 -10 -14 0 -25 6 -25 13 0 18 63 208 67 203 3 -2 0 -47
-6 -100z m2113 -178 l6 -58 -59 0 -60 0 23 83 c13 45 34 117 47 159 l24 76 7
-101 c3 -56 9 -128 12 -159z m289 117 c43 -172 44 -155 -4 -155 l-42 0 7 77
c3 42 6 101 6 131 0 31 2 53 4 51 2 -2 15 -49 29 -104z m292 38 c-15 -167 -14
-163 -47 -163 -26 0 -29 3 -23 23 36 116 67 207 71 207 3 0 3 -30 -1 -67z
m-2270 -5 c-10 -98 -13 -108 -36 -108 -13 0 -19 5 -16 13 2 6 15 45 28 85 12
39 25 72 26 72 2 0 1 -28 -2 -62z m2691 -54 c-4 -18 -11 -34 -16 -34 -13 0
-12 4 2 53 14 46 23 33 14 -19z m-2152 -23 c-4 -24 -12 -41 -20 -41 -10 0 -10
9 3 46 18 54 26 52 17 -5z m2692 -49 c-11 -10 -15 4 -8 28 l7 25 3 -23 c2 -13
1 -26 -2 -30z m-1101 -11 c-4 -25 -12 -41 -20 -41 -11 0 -11 8 3 45 19 53 27
51 17 -4z m-443 -836 c41 -8 115 -36 168 -61 176 -86 313 -256 370 -458 31
-109 43 -260 30 -379 -37 -340 -211 -572 -500 -665 -286 -93 -607 -12 -794
200 -91 103 -162 259 -186 411 -17 105 -8 308 19 412 56 218 189 388 371 479
52 25 124 53 160 60 88 19 271 20 362 1z m1088 -790 l0 -785 -105 0 -105 0 0
785 0 785 105 0 105 0 0 -785z m560 90 l0 -695 385 0 385 0 0 -90 0 -90 -490
0 -490 0 0 778 c0 428 3 782 7 785 3 4 51 7 105 7 l98 0 0 -695z"/>
<path d="M2050 2058 c-190 -67 -302 -195 -347 -398 -23 -104 -23 -331 0 -424
72 -290 331 -459 623 -405 192 35 353 197 405 409 19 74 19 347 0 420 -37 147
-117 269 -219 334 -107 68 -142 79 -277 83 -105 3 -128 1 -185 -19z"/>
</g>
</svg>
